<svg xmlns="http://www.w3.org/2000/svg" viewBox="0 0 5423 2358" preserveAspectRatio="none"><g fill="#f3efe8"><rect x="294" y="0" width="48" height="2358"/><rect x="725" y="0" width="48" height="2358"/><rect x="1157" y="0" width="48" height="2358"/><rect x="1592" y="0" width="48" height="2358"/><rect x="2020" y="0" width="48" height="2358"/><rect x="2454" y="0" width="48" height="2358"/><rect x="2882" y="0" width="48" height="2358"/><rect x="3319" y="0" width="48" height="2358"/><rect x="3745" y="0" width="48" height="2358"/><rect x="4178" y="0" width="48" height="2358"/><rect x="4603" y="0" width="48" height="2358"/><rect x="5050" y="0" width="48" height="2358"/><rect x="0" y="194" width="5423" height="48"/><rect x="0" y="624" width="5423" height="48"/><rect x="0" y="1052" width="5423" height="48"/><rect x="0" y="1482" width="5423" height="48"/><rect x="0" y="1906" width="5423" height="48"/></g><g fill="none" stroke-width="7"><path d="M32 186V32H286" stroke="#fff" stroke-opacity=".7"/><path d="M286 32V186H32" stroke="#1c1a17" stroke-opacity=".12"/><path d="M32 616V250H286" stroke="#fff" stroke-opacity=".7"/><path d="M286 250V616H32" stroke="#1c1a17" stroke-opacity=".12"/><path d="M32 1044V680H286" stroke="#fff" stroke-opacity=".7"/><path d="M286 680V1044H32" stroke="#1c1a17" stroke-opacity=".12"/><path d="M32 1474V1108H286" stroke="#fff" stroke-opacity=".7"/><path d="M286 1108V1474H32" stroke="#1c1a17" stroke-opacity=".12"/><path d="M32 1898V1538H286" stroke="#fff" stroke-opacity=".7"/><path d="M286 1538V1898H32" stroke="#1c1a17" stroke-opacity=".12"/><path d="M32 2326V1962H286" stroke="#fff" stroke-opacity=".7"/><path d="M286 1962V2326H32" stroke="#1c1a17" stroke-opacity=".12"/><path d="M350 186V32H717" stroke="#fff" stroke-opacity=".7"/><path d="M717 32V186H350" stroke="#1c1a17" stroke-opacity=".12"/><path d="M350 616V250H717" stroke="#fff" stroke-opacity=".7"/><path d="M717 250V616H350" stroke="#1c1a17" stroke-opacity=".12"/><path d="M350 1044V680H717" stroke="#fff" stroke-opacity=".7"/><path d="M717 680V1044H350" stroke="#1c1a17" stroke-opacity=".12"/><path d="M350 1474V1108H717" stroke="#fff" stroke-opacity=".7"/><path d="M717 1108V1474H350" stroke="#1c1a17" stroke-opacity=".12"/><path d="M350 1898V1538H717" stroke="#fff" stroke-opacity=".7"/><path d="M717 1538V1898H350" stroke="#1c1a17" stroke-opacity=".12"/><path d="M350 2326V1962H717" stroke="#fff" stroke-opacity=".7"/><path d="M717 1962V2326H350" stroke="#1c1a17" stroke-opacity=".12"/><path d="M781 186V32H1149" stroke="#fff" stroke-opacity=".7"/><path d="M1149 32V186H781" stroke="#1c1a17" stroke-opacity=".12"/><path d="M781 616V250H1149" stroke="#fff" stroke-opacity=".7"/><path d="M1149 250V616H781" stroke="#1c1a17" stroke-opacity=".12"/><path d="M781 1044V680H1149" stroke="#fff" stroke-opacity=".7"/><path d="M1149 680V1044H781" stroke="#1c1a17" stroke-opacity=".12"/><path d="M781 1474V1108H1149" stroke="#fff" stroke-opacity=".7"/><path d="M1149 1108V1474H781" stroke="#1c1a17" stroke-opacity=".12"/><path d="M781 1898V1538H1149" stroke="#fff" stroke-opacity=".7"/><path d="M1149 1538V1898H781" stroke="#1c1a17" stroke-opacity=".12"/><path d="M781 2326V1962H1149" stroke="#fff" stroke-opacity=".7"/><path d="M1149 1962V2326H781" stroke="#1c1a17" stroke-opacity=".12"/><path d="M1213 186V32H1584" stroke="#fff" stroke-opacity=".7"/><path d="M1584 32V186H1213" stroke="#1c1a17" stroke-opacity=".12"/><path d="M1213 616V250H1584" stroke="#fff" stroke-opacity=".7"/><path d="M1584 250V616H1213" stroke="#1c1a17" stroke-opacity=".12"/><path d="M1213 1044V680H1584" stroke="#fff" stroke-opacity=".7"/><path d="M1584 680V1044H1213" stroke="#1c1a17" stroke-opacity=".12"/><path d="M1213 1474V1108H1584" stroke="#fff" stroke-opacity=".7"/><path d="M1584 1108V1474H1213" stroke="#1c1a17" stroke-opacity=".12"/><path d="M1213 1898V1538H1584" stroke="#fff" stroke-opacity=".7"/><path d="M1584 1538V1898H1213" stroke="#1c1a17" stroke-opacity=".12"/><path d="M1213 2326V1962H1584" stroke="#fff" stroke-opacity=".7"/><path d="M1584 1962V2326H1213" stroke="#1c1a17" stroke-opacity=".12"/><path d="M1648 186V32H2012" stroke="#fff" stroke-opacity=".7"/><path d="M2012 32V186H1648" stroke="#1c1a17" stroke-opacity=".12"/><path d="M1648 616V250H2012" stroke="#fff" stroke-opacity=".7"/><path d="M2012 250V616H1648" stroke="#1c1a17" stroke-opacity=".12"/><path d="M1648 1044V680H2012" stroke="#fff" stroke-opacity=".7"/><path d="M2012 680V1044H1648" stroke="#1c1a17" stroke-opacity=".12"/><path d="M1648 1474V1108H2012" stroke="#fff" stroke-opacity=".7"/><path d="M2012 1108V1474H1648" stroke="#1c1a17" stroke-opacity=".12"/><path d="M1648 1898V1538H2012" stroke="#fff" stroke-opacity=".7"/><path d="M2012 1538V1898H1648" stroke="#1c1a17" stroke-opacity=".12"/><path d="M1648 2326V1962H2012" stroke="#fff" stroke-opacity=".7"/><path d="M2012 1962V2326H1648" stroke="#1c1a17" stroke-opacity=".12"/><path d="M2076 186V32H2446" stroke="#fff" stroke-opacity=".7"/><path d="M2446 32V186H2076" stroke="#1c1a17" stroke-opacity=".12"/><path d="M2076 616V250H2446" stroke="#fff" stroke-opacity=".7"/><path d="M2446 250V616H2076" stroke="#1c1a17" stroke-opacity=".12"/><path d="M2076 1044V680H2446" stroke="#fff" stroke-opacity=".7"/><path d="M2446 680V1044H2076" stroke="#1c1a17" stroke-opacity=".12"/><path d="M2076 1474V1108H2446" stroke="#fff" stroke-opacity=".7"/><path d="M2446 1108V1474H2076" stroke="#1c1a17" stroke-opacity=".12"/><path d="M2076 1898V1538H2446" stroke="#fff" stroke-opacity=".7"/><path d="M2446 1538V1898H2076" stroke="#1c1a17" stroke-opacity=".12"/><path d="M2076 2326V1962H2446" stroke="#fff" stroke-opacity=".7"/><path d="M2446 1962V2326H2076" stroke="#1c1a17" stroke-opacity=".12"/><path d="M2510 186V32H2874" stroke="#fff" stroke-opacity=".7"/><path d="M2874 32V186H2510" stroke="#1c1a17" stroke-opacity=".12"/><path d="M2510 616V250H2874" stroke="#fff" stroke-opacity=".7"/><path d="M2874 250V616H2510" stroke="#1c1a17" stroke-opacity=".12"/><path d="M2510 1044V680H2874" stroke="#fff" stroke-opacity=".7"/><path d="M2874 680V1044H2510" stroke="#1c1a17" stroke-opacity=".12"/><path d="M2510 1474V1108H2874" stroke="#fff" stroke-opacity=".7"/><path d="M2874 1108V1474H2510" stroke="#1c1a17" stroke-opacity=".12"/><path d="M2510 1898V1538H2874" stroke="#fff" stroke-opacity=".7"/><path d="M2874 1538V1898H2510" stroke="#1c1a17" stroke-opacity=".12"/><path d="M2510 2326V1962H2874" stroke="#fff" stroke-opacity=".7"/><path d="M2874 1962V2326H2510" stroke="#1c1a17" stroke-opacity=".12"/><path d="M2938 186V32H3311" stroke="#fff" stroke-opacity=".7"/><path d="M3311 32V186H2938" stroke="#1c1a17" stroke-opacity=".12"/><path d="M2938 616V250H3311" stroke="#fff" stroke-opacity=".7"/><path d="M3311 250V616H2938" stroke="#1c1a17" stroke-opacity=".12"/><path d="M2938 1044V680H3311" stroke="#fff" stroke-opacity=".7"/><path d="M3311 680V1044H2938" stroke="#1c1a17" stroke-opacity=".12"/><path d="M2938 1474V1108H3311" stroke="#fff" stroke-opacity=".7"/><path d="M3311 1108V1474H2938" stroke="#1c1a17" stroke-opacity=".12"/><path d="M2938 1898V1538H3311" stroke="#fff" stroke-opacity=".7"/><path d="M3311 1538V1898H2938" stroke="#1c1a17" stroke-opacity=".12"/><path d="M2938 2326V1962H3311" stroke="#fff" stroke-opacity=".7"/><path d="M3311 1962V2326H2938" stroke="#1c1a17" stroke-opacity=".12"/><path d="M3375 186V32H3737" stroke="#fff" stroke-opacity=".7"/><path d="M3737 32V186H3375" stroke="#1c1a17" stroke-opacity=".12"/><path d="M3375 616V250H3737" stroke="#fff" stroke-opacity=".7"/><path d="M3737 250V616H3375" stroke="#1c1a17" stroke-opacity=".12"/><path d="M3375 1044V680H3737" stroke="#fff" stroke-opacity=".7"/><path d="M3737 680V1044H3375" stroke="#1c1a17" stroke-opacity=".12"/><path d="M3375 1474V1108H3737" stroke="#fff" stroke-opacity=".7"/><path d="M3737 1108V1474H3375" stroke="#1c1a17" stroke-opacity=".12"/><path d="M3375 1898V1538H3737" stroke="#fff" stroke-opacity=".7"/><path d="M3737 1538V1898H3375" stroke="#1c1a17" stroke-opacity=".12"/><path d="M3375 2326V1962H3737" stroke="#fff" stroke-opacity=".7"/><path d="M3737 1962V2326H3375" stroke="#1c1a17" stroke-opacity=".12"/><path d="M3801 186V32H4170" stroke="#fff" stroke-opacity=".7"/><path d="M4170 32V186H3801" stroke="#1c1a17" stroke-opacity=".12"/><path d="M3801 616V250H4170" stroke="#fff" stroke-opacity=".7"/><path d="M4170 250V616H3801" stroke="#1c1a17" stroke-opacity=".12"/><path d="M3801 1044V680H4170" stroke="#fff" stroke-opacity=".7"/><path d="M4170 680V1044H3801" stroke="#1c1a17" stroke-opacity=".12"/><path d="M3801 1474V1108H4170" stroke="#fff" stroke-opacity=".7"/><path d="M4170 1108V1474H3801" stroke="#1c1a17" stroke-opacity=".12"/><path d="M3801 1898V1538H4170" stroke="#fff" stroke-opacity=".7"/><path d="M4170 1538V1898H3801" stroke="#1c1a17" stroke-opacity=".12"/><path d="M3801 2326V1962H4170" stroke="#fff" stroke-opacity=".7"/><path d="M4170 1962V2326H3801" stroke="#1c1a17" stroke-opacity=".12"/><path d="M4234 186V32H4595" stroke="#fff" stroke-opacity=".7"/><path d="M4595 32V186H4234" stroke="#1c1a17" stroke-opacity=".12"/><path d="M4234 616V250H4595" stroke="#fff" stroke-opacity=".7"/><path d="M4595 250V616H4234" stroke="#1c1a17" stroke-opacity=".12"/><path d="M4234 1044V680H4595" stroke="#fff" stroke-opacity=".7"/><path d="M4595 680V1044H4234" stroke="#1c1a17" stroke-opacity=".12"/><path d="M4234 1474V1108H4595" stroke="#fff" stroke-opacity=".7"/><path d="M4595 1108V1474H4234" stroke="#1c1a17" stroke-opacity=".12"/><path d="M4234 1898V1538H4595" stroke="#fff" stroke-opacity=".7"/><path d="M4595 1538V1898H4234" stroke="#1c1a17" stroke-opacity=".12"/><path d="M4234 2326V1962H4595" stroke="#fff" stroke-opacity=".7"/><path d="M4595 1962V2326H4234" stroke="#1c1a17" stroke-opacity=".12"/><path d="M4659 186V32H5042" stroke="#fff" stroke-opacity=".7"/><path d="M5042 32V186H4659" stroke="#1c1a17" stroke-opacity=".12"/><path d="M4659 616V250H5042" stroke="#fff" stroke-opacity=".7"/><path d="M5042 250V616H4659" stroke="#1c1a17" stroke-opacity=".12"/><path d="M4659 1044V680H5042" stroke="#fff" stroke-opacity=".7"/><path d="M5042 680V1044H4659" stroke="#1c1a17" stroke-opacity=".12"/><path d="M4659 1474V1108H5042" stroke="#fff" stroke-opacity=".7"/><path d="M5042 1108V1474H4659" stroke="#1c1a17" stroke-opacity=".12"/><path d="M4659 1898V1538H5042" stroke="#fff" stroke-opacity=".7"/><path d="M5042 1538V1898H4659" stroke="#1c1a17" stroke-opacity=".12"/><path d="M4659 2326V1962H5042" stroke="#fff" stroke-opacity=".7"/><path d="M5042 1962V2326H4659" stroke="#1c1a17" stroke-opacity=".12"/><path d="M5106 186V32H5391" stroke="#fff" stroke-opacity=".7"/><path d="M5391 32V186H5106" stroke="#1c1a17" stroke-opacity=".12"/><path d="M5106 616V250H5391" stroke="#fff" stroke-opacity=".7"/><path d="M5391 250V616H5106" stroke="#1c1a17" stroke-opacity=".12"/><path d="M5106 1044V680H5391" stroke="#fff" stroke-opacity=".7"/><path d="M5391 680V1044H5106" stroke="#1c1a17" stroke-opacity=".12"/><path d="M5106 1474V1108H5391" stroke="#fff" stroke-opacity=".7"/><path d="M5391 1108V1474H5106" stroke="#1c1a17" stroke-opacity=".12"/><path d="M5106 1898V1538H5391" stroke="#fff" stroke-opacity=".7"/><path d="M5391 1538V1898H5106" stroke="#1c1a17" stroke-opacity=".12"/><path d="M5106 2326V1962H5391" stroke="#fff" stroke-opacity=".7"/><path d="M5391 1962V2326H5106" stroke="#1c1a17" stroke-opacity=".12"/></g></svg>